<?xml version="1.0" standalone="no"?>
<!DOCTYPE svg PUBLIC "-//W3C//DTD SVG 20010904//EN"
 "http://www.w3.org/TR/2001/REC-SVG-20010904/DTD/svg10.dtd">
<svg version="1.0" xmlns="http://www.w3.org/2000/svg"
 width="1200.000000pt" height="1200.000000pt" viewBox="0 0 1200.000000 1200.000000"
 preserveAspectRatio="xMidYMid meet">
<metadata>
Created by potrace 1.14, written by Peter Selinger 2001-2017
</metadata>
<g transform="translate(0.000000,1200.000000) scale(0.100000,-0.100000)"
fill="#000000" stroke="none">
<path d="M8230 9139 c0 -5 -4 -8 -8 -5 -7 4 -84 -17 -152 -42 -8 -3 -18 -4
-22 -4 -5 1 -8 -2 -8 -6 0 -5 -6 -9 -12 -10 -15 -1 -52 -10 -55 -12 -2 -2 -6
-3 -10 -5 -5 -1 -15 -4 -23 -8 -33 -13 -296 -99 -313 -102 -9 -2 -23 -7 -30
-12 -6 -4 -16 -8 -22 -9 -5 -1 -55 -17 -110 -35 -55 -18 -102 -34 -105 -34 -3
-1 -18 -7 -33 -13 -16 -7 -34 -12 -41 -12 -7 0 -16 -3 -20 -7 -3 -4 -16 -8
-28 -10 -12 -2 -27 -8 -35 -14 -7 -6 -13 -9 -13 -6 0 3 -29 -5 -64 -17 -36
-13 -67 -21 -70 -18 -3 3 -6 -1 -6 -8 0 -7 -3 -11 -6 -8 -3 3 -34 -5 -70 -18
-35 -12 -64 -20 -64 -17 0 3 -6 0 -13 -6 -8 -6 -22 -12 -33 -14 -10 -2 -26 -7
-34 -10 -51 -21 -448 -150 -462 -151 -10 0 -18 -3 -18 -7 0 -6 -38 -22 -51
-21 -3 1 -70 -22 -150 -49 -79 -27 -154 -52 -165 -54 -12 -3 -38 -12 -58 -20
-20 -9 -41 -13 -46 -10 -4 3 -10 2 -12 -3 -4 -9 -396 -142 -420 -142 -9 0 -18
-5 -20 -10 -2 -6 -18 -11 -36 -13 -17 -1 -32 -5 -32 -9 0 -5 -9 -8 -20 -8 -11
0 -20 -4 -20 -8 0 -4 -8 -8 -17 -9 -22 -2 -40 -7 -73 -20 -39 -16 -264 -88
-275 -88 -5 0 -12 -3 -15 -6 -3 -3 -57 -23 -120 -43 -63 -21 -120 -42 -126
-47 -6 -5 -13 -6 -17 -3 -3 3 -15 0 -27 -6 -12 -6 -29 -13 -38 -15 -9 -2 -70
-21 -134 -43 -64 -22 -119 -38 -122 -34 -3 3 -6 1 -6 -5 0 -5 -7 -10 -15 -11
-8 -1 -22 -3 -30 -4 -8 -1 -15 -5 -15 -10 0 -4 -6 -8 -13 -8 -8 0 -54 -14
-103 -30 -49 -17 -97 -33 -106 -35 -9 -2 -25 -8 -35 -13 -10 -6 -21 -10 -26
-10 -12 -1 -170 -52 -187 -61 -9 -5 -31 -12 -50 -16 -19 -4 -41 -12 -47 -17
-7 -6 -13 -7 -13 -3 0 4 -7 2 -15 -5 -8 -6 -18 -9 -24 -6 -5 3 -11 3 -13 -2
-1 -4 -39 -18 -83 -32 -44 -13 -86 -28 -92 -33 -7 -5 -13 -6 -13 -2 0 4 -6 3
-12 -2 -11 -9 -32 -16 -83 -29 -5 -1 -48 -16 -95 -34 -47 -17 -91 -32 -97 -32
-12 -1 -64 -48 -90 -81 -7 -9 -16 -33 -19 -54 -3 -21 -7 -45 -9 -53 -1 -8 0
-19 3 -25 3 -5 7 -18 8 -30 1 -11 8 -33 15 -50 7 -16 13 -32 13 -35 2 -13 29
-97 37 -115 12 -29 49 -147 49 -157 0 -7 -28 -43 -59 -75 -16 -17 -61 -82 -61
-89 0 -2 -9 -23 -20 -47 -11 -23 -26 -69 -33 -102 -20 -89 -12 -258 14 -307 5
-10 6 -18 2 -18 -4 0 -2 -5 5 -12 7 -7 12 -18 12 -25 0 -19 58 -112 99 -158
42 -48 134 -125 148 -125 11 0 24 -35 17 -43 -10 -9 -3 -2852 6 -2861 6 -6 10
-17 10 -26 0 -9 18 -36 40 -59 22 -23 40 -39 40 -35 0 3 7 0 17 -7 9 -8 17
-13 17 -11 1 2 8 1 16 -2 18 -7 5379 -2 5400 5 27 8 90 50 90 59 0 5 6 15 14
22 15 16 48 118 37 118 -7 0 -5 105 3 125 2 7 2 16 -1 19 -8 8 -10 56 -3 56 3
0 6 9 6 20 0 11 -3 20 -6 20 -7 0 -3 107 4 125 2 7 2 16 -1 19 -8 8 -10 56 -3
56 3 0 6 9 6 20 0 11 -3 20 -6 20 -7 0 -3 107 4 125 2 7 2 16 -1 19 -8 8 -10
56 -3 56 3 0 6 9 6 20 0 11 -3 20 -6 20 -7 0 -3 107 4 125 2 7 2 16 -1 19 -8
8 -10 56 -3 56 3 0 6 9 6 20 0 11 -3 20 -6 20 -7 0 -3 107 4 125 2 7 2 16 -1
19 -8 8 -10 56 -3 56 3 0 6 9 6 20 0 11 -3 20 -6 20 -8 0 -4 55 5 69 3 6 2 11
-2 11 -9 0 -8 102 1 125 2 7 2 16 -1 19 -8 8 -10 56 -3 56 3 0 6 9 6 20 0 11
-3 20 -6 20 -7 0 -3 107 4 125 2 7 2 16 -1 19 -8 8 -10 56 -3 56 3 0 6 9 6 20
0 11 -3 20 -6 20 -7 0 -3 107 4 125 2 7 2 16 -1 19 -8 8 -10 56 -3 56 3 0 6 9
6 20 0 11 -3 20 -6 20 -7 0 -3 107 4 125 2 7 2 16 -1 19 -8 8 -10 56 -3 56 3
0 6 9 6 20 0 11 -3 20 -6 20 -7 0 -3 107 4 125 2 7 2 16 -1 19 -8 8 -10 56 -3
56 3 0 6 9 6 20 0 11 -3 20 -6 20 -8 0 -4 55 5 69 3 6 2 11 -2 11 -9 0 -8 102
1 125 2 7 2 16 -1 19 -8 8 -10 56 -3 56 3 0 6 9 6 20 0 11 -3 20 -6 20 -7 0
-3 107 4 125 2 7 2 16 -1 19 -8 8 -10 56 -3 56 3 0 6 9 6 20 0 11 -3 20 -6 20
-7 0 -3 107 4 127 3 8 2 12 -2 9 -10 -6 -7 78 3 94 3 5 2 10 -4 10 -9 0 -7 37
4 68 2 6 -1 12 -7 12 -7 0 -7 4 1 13 6 8 7 17 3 21 -4 4 -7 13 -7 19 0 9 -577
12 -2397 12 -1318 0 -2396 2 -2396 5 1 3 -1 12 -4 20 -3 8 -11 40 -18 70 -7
30 -26 79 -42 109 -28 51 -29 55 -11 65 10 6 23 11 28 12 6 1 43 14 83 28 39
13 72 22 72 19 0 -3 6 0 13 6 8 6 17 8 20 4 4 -3 7 -1 7 6 0 8 8 11 20 8 11
-3 20 -2 20 3 0 4 21 13 48 20 26 7 52 17 57 21 6 4 14 7 18 7 7 0 244 76 277
89 8 4 17 7 20 7 10 3 176 57 190 63 8 4 18 7 23 8 4 2 9 4 12 5 3 1 10 4 15
5 6 1 12 4 15 5 3 1 8 3 13 4 4 1 39 13 77 26 39 13 72 24 75 25 3 0 11 4 18
8 6 5 12 6 12 3 0 -3 17 2 37 10 20 9 44 17 52 19 9 2 42 13 74 24 31 11 57
17 57 13 0 -4 4 -2 8 3 4 6 34 19 67 28 33 10 69 22 80 26 11 5 79 28 150 51
72 24 135 47 141 51 6 5 13 7 16 4 3 -3 18 1 34 10 16 8 35 15 42 15 6 0 51
14 100 31 48 17 94 32 102 34 8 2 56 18 105 35 50 18 95 33 100 35 6 1 23 7
38 13 16 7 34 12 42 12 7 0 34 9 59 20 26 11 50 20 54 21 4 1 17 5 29 10 12 4
33 10 45 11 13 2 29 7 35 11 7 5 21 10 30 12 10 3 65 20 122 40 58 19 111 35
118 35 7 0 13 4 13 8 0 5 6 9 13 10 19 1 41 7 52 13 6 3 39 14 75 24 36 11 68
23 71 28 3 5 8 8 10 6 2 -1 38 8 79 21 41 13 77 24 80 25 3 1 18 7 33 13 16 7
34 12 42 12 8 0 17 5 20 10 4 6 11 8 16 4 5 -3 16 0 24 6 8 7 15 9 15 5 0 -4
6 -3 13 2 6 6 36 16 65 24 28 7 52 16 52 19 0 4 6 7 13 8 39 5 54 9 67 17 15
10 34 15 58 17 6 1 12 5 12 10 0 4 3 7 8 7 4 -1 10 0 15 1 4 1 10 3 15 4 59
14 112 31 112 38 0 4 3 7 8 7 4 -1 9 0 12 1 5 2 29 7 53 13 6 1 17 5 22 9 6 3
26 9 45 13 19 4 37 11 40 15 3 5 19 11 35 14 27 5 247 77 285 93 8 3 20 7 25
8 6 1 33 10 60 20 28 9 57 18 66 20 24 5 89 33 89 39 0 3 -20 64 -44 136 -24
71 -42 130 -39 130 4 0 -1 8 -10 18 -10 10 -15 21 -12 23 2 3 -13 56 -35 117
-21 62 -36 112 -33 112 3 0 1 6 -5 13 -5 6 -18 39 -27 72 -10 33 -21 65 -26
71 -5 6 -7 13 -4 16 13 13 -64 104 -106 125 -46 24 -139 32 -139 12z m-489
-417 c-6 -11 -8 -22 -5 -25 3 -3 1 -14 -4 -24 -6 -10 -12 -31 -15 -48 -2 -16
-9 -48 -15 -70 -6 -22 -13 -51 -16 -65 -3 -14 -12 -49 -20 -77 -8 -29 -12 -53
-10 -53 3 0 2 -6 -3 -12 -4 -7 -8 -16 -9 -20 -1 -5 -3 -10 -4 -13 -1 -3 -3 -8
-4 -12 -22 -106 -32 -140 -45 -148 -17 -10 -75 -33 -101 -40 -8 -2 -85 -27
-170 -55 -85 -29 -159 -53 -165 -55 -5 -1 -17 -5 -25 -8 -24 -11 -134 -46
-136 -44 -1 1 9 45 22 97 14 52 26 104 29 115 2 11 9 40 16 65 6 25 13 54 15
65 11 43 13 50 14 50 2 0 4 8 26 112 l18 83 51 17 c27 9 52 18 55 18 3 1 19 7
35 14 17 7 35 14 40 15 49 12 72 20 83 29 6 5 12 7 12 5 0 -3 75 21 168 52 92
31 168 55 170 54 2 -1 -1 -11 -7 -22z m-1508 -488 c3 -3 0 -26 -8 -50 -7 -24
-11 -44 -9 -44 2 0 -1 -12 -7 -27 -6 -16 -13 -39 -15 -53 -2 -14 -17 -79 -34
-145 -17 -66 -33 -128 -35 -138 -2 -10 -6 -26 -9 -35 -3 -9 -7 -30 -10 -45 -6
-36 -23 -57 -46 -57 -9 0 -20 -3 -24 -7 -4 -5 -11 -8 -14 -9 -14 -1 -127 -39
-132 -44 -3 -3 -9 -6 -15 -6 -12 -2 -144 -42 -165 -51 -8 -3 -17 -7 -20 -8
-29 -7 -149 -48 -162 -56 -10 -5 -25 -9 -33 -9 -13 0 -14 4 -5 20 6 11 8 20 5
20 -4 0 -3 6 2 13 4 6 8 18 10 26 1 7 7 34 13 60 6 25 12 55 15 66 2 11 17 70
33 130 16 61 29 112 29 115 2 11 15 67 24 102 7 28 17 39 42 49 17 7 40 12 50
12 9 0 17 4 17 8 0 5 6 9 14 9 8 0 27 5 43 12 15 6 35 13 43 14 13 2 195 64
240 81 8 3 22 7 30 9 8 2 38 12 65 23 59 23 60 23 68 15z m-1518 -569 c-9 -36
-18 -71 -19 -78 -1 -7 -5 -18 -10 -25 -4 -7 -5 -16 -2 -19 3 -3 1 -12 -5 -20
-6 -7 -9 -13 -6 -13 3 0 -1 -24 -9 -52 -8 -29 -16 -65 -19 -80 -2 -15 -6 -31
-9 -36 -3 -5 -7 -19 -10 -33 -3 -13 -13 -55 -23 -93 l-18 -69 -125 -43 c-69
-24 -133 -43 -142 -43 -10 -1 -18 -6 -18 -13 0 -6 -3 -9 -6 -6 -3 4 -33 -3
-67 -14 -34 -11 -69 -22 -77 -24 -8 -3 -15 -4 -15 -3 0 1 -11 -4 -25 -11 -14
-8 -34 -15 -44 -17 -11 -2 -32 -10 -48 -17 -15 -8 -30 -11 -33 -6 -2 4 2 33
10 64 8 30 17 68 20 83 2 16 9 43 14 61 5 17 7 32 5 32 -3 0 -2 6 3 13 4 6 8
14 8 17 4 25 40 166 45 170 3 3 6 14 7 25 5 71 31 129 58 133 11 2 27 6 35 9
8 4 17 7 20 7 3 1 11 5 18 9 6 5 16 6 21 3 5 -4 11 -3 13 2 1 4 39 18 83 32
44 13 86 28 93 33 6 5 12 6 12 2 0 -4 6 -3 13 2 13 11 67 27 80 25 4 -1 7 3 7
9 0 5 5 7 10 4 6 -4 16 -2 23 3 10 8 54 22 72 23 2 0 19 6 37 14 18 7 34 12
36 10 2 -2 -4 -33 -13 -70z m-1075 -951 c35 0 112 -26 130 -44 11 -11 23 -20
26 -20 20 0 94 -111 94 -140 0 -11 4 -20 9 -20 9 0 8 -121 -3 -165 -4 -16 -12
-32 -17 -36 -6 -3 -11 -10 -11 -15 -3 -25 -11 -43 -19 -38 -5 3 -9 0 -9 -5 0
-6 -14 -24 -31 -40 -77 -74 -209 -100 -311 -61 -32 12 -58 26 -58 31 0 5 -6 9
-14 9 -16 0 -75 69 -99 115 -8 17 -18 48 -21 70 -4 22 -9 48 -12 58 -3 9 -2
17 3 17 4 0 9 18 10 39 3 75 74 175 150 212 27 13 51 23 56 21 4 -1 7 2 7 6 0
5 12 8 28 7 15 -1 36 1 47 5 11 4 22 5 25 1 3 -4 12 -7 20 -7z m960 -397 c0
-4 6 -5 13 0 17 11 170 11 185 0 6 -5 12 -6 12 -1 0 5 52 9 115 9 134 0 131 5
60 -105 -64 -98 -118 -183 -130 -202 -59 -100 -132 -208 -140 -209 -61 -5 -95
-3 -95 6 0 5 -4 4 -9 -3 -4 -8 -12 -14 -16 -14 -4 0 -12 6 -16 14 -5 7 -9 9
-9 3 0 -6 -86 -9 -242 -8 -134 1 -245 2 -247 2 -2 1 4 10 14 21 10 11 15 20
11 20 -4 0 -2 6 4 13 6 6 33 46 59 87 27 41 73 113 103 160 30 47 70 111 89
142 19 31 42 60 52 65 23 11 187 11 187 0z m1444 1 c10 10 156 9 156 -1 0 -4
6 -5 13 0 17 11 170 11 185 0 6 -5 12 -6 12 -1 0 5 50 9 110 9 113 0 128 -6
95 -39 -8 -8 -15 -19 -15 -25 0 -5 -6 -16 -13 -23 -7 -7 -26 -33 -41 -58 -15
-25 -32 -54 -39 -64 -7 -10 -45 -71 -86 -135 -40 -64 -81 -128 -90 -143 -9
-16 -25 -28 -36 -29 -94 -4 -565 0 -573 5 -6 3 -12 2 -14 -3 -1 -4 -11 -5 -21
-2 -16 6 -14 13 20 62 60 88 63 93 69 112 4 9 10 17 15 17 5 0 9 5 9 10 0 6 5
16 10 23 24 28 70 103 70 114 0 6 3 13 8 15 8 4 82 115 82 124 0 4 10 15 22
25 14 13 25 16 33 9 6 -5 15 -7 19 -2z m1828 -3 c5 -7 8 -7 8 0 0 6 63 10 170
10 93 0 170 -3 170 -8 0 -4 -25 -46 -55 -92 -30 -47 -55 -87 -55 -90 0 -2 -17
-30 -38 -62 -21 -32 -57 -87 -80 -123 -22 -36 -45 -69 -49 -75 -4 -5 -14 -22
-22 -37 -8 -17 -23 -28 -35 -29 -172 -5 -386 -2 -386 6 0 6 -4 4 -9 -3 -4 -8
-12 -14 -16 -14 -4 0 -12 6 -16 14 -5 7 -9 9 -9 3 0 -6 -37 -10 -90 -10 -55 0
-90 4 -90 10 0 6 16 34 35 64 19 29 35 56 35 60 0 4 8 16 18 27 10 10 21 26
25 34 4 8 17 31 29 51 113 180 142 225 152 231 6 4 7 8 3 8 -11 0 15 26 31 31
27 9 267 4 274 -6z m-2008 -1141 c9 -8 16 -12 16 -8 0 4 9 -3 20 -16 11 -13
20 -19 20 -15 0 4 9 0 20 -10 11 -10 20 -14 20 -9 0 5 4 4 8 -1 10 -15 120
-85 132 -85 5 0 10 -4 10 -10 0 -5 7 -10 15 -10 8 0 15 -4 15 -10 0 -5 4 -10
10 -10 12 0 174 -102 178 -112 2 -5 8 -8 13 -8 5 0 65 -36 135 -80 69 -44 129
-80 134 -80 5 0 10 -3 12 -7 2 -5 46 -34 98 -67 52 -32 113 -70 135 -85 22
-14 43 -24 48 -23 4 1 7 -4 7 -12 0 -15 -30 -44 -30 -30 0 5 -4 4 -8 -2 -10
-15 -136 -94 -151 -94 -6 0 -11 -4 -11 -10 0 -5 -17 -19 -37 -30 -46 -25 -112
-65 -133 -80 -40 -28 -119 -77 -153 -95 -20 -11 -37 -23 -37 -27 0 -3 -10 -10
-22 -14 -13 -4 -25 -10 -28 -13 -3 -4 -41 -29 -85 -56 -44 -27 -82 -52 -85
-55 -3 -4 -10 -9 -15 -11 -6 -2 -49 -28 -95 -57 -47 -29 -94 -59 -105 -65 -11
-7 -32 -20 -47 -30 -27 -18 -28 -18 -29 0 -3 105 -3 133 2 133 3 0 4 12 2 28
-6 47 -8 452 -2 452 3 0 4 12 2 28 -7 45 -5 250 2 261 3 6 3 11 -2 11 -7 0 -9
142 -3 175 1 6 1 26 0 45 -6 84 -4 210 2 210 4 0 14 -7 22 -16z"/>
</g>
</svg>
